<?xml version="1.0" encoding="UTF-8"?>
<svg id="Calque_2" xmlns="http://www.w3.org/2000/svg" viewBox="0 0 1741.24 1086.25">
  <defs>
    <style>
      .cls-1 {
        fill: #fcfcfc;
      }

      .cls-2, .cls-3, .cls-4, .cls-5, .cls-6 {
        stroke-miterlimit: 10;
      }

      .cls-2, .cls-3, .cls-5, .cls-6 {
        stroke-width: 10px;
      }

      .cls-2, .cls-4 {
        fill: #e67e22;
        stroke: #020202;
      }

      .cls-7 {
        fill: #fff;
      }

      .cls-8, .cls-6 {
        fill: #050505;
      }

      .cls-9 {
        fill: none;
      }

      .cls-3 {
        stroke: #070202;
      }

      .cls-3, .cls-5 {
        fill: #717380;
      }

      .cls-10 {
        fill: #fffefd;
      }

      .cls-5 {
        stroke: #1d1d1b;
      }

      .cls-6 {
        stroke: #070606;
      }
    </style>
  </defs>
  <g id="Calque_1-2" data-name="Calque_1">
    <path class="cls-10" d="M1049.4,461.36c-2.68-8.41-7.67-19.79-17.64-42.55-5.66-12.92-11.35-25.78-19.93-40.5-3.25-5.58-5.66-9.66-6.31-10.72-3.14-5.07-10.85-17.3-21.59-30.77-6.05-7.59-18.04-22.63-35.53-37.46-16.38-13.9-30.59-21.26-59-36-22.16-11.49-39.28-20.24-60.57-24.97-4.59-1.02-14.93-3.08-27.24-4.96-9.36-1.43-18.37-2.5-26.92-3.3h-108.61v608.16c27.66,5.55,90.13,15.31,154.44-.64,31.87-7.9,61.64-21.49,69.89-25.29,17.43-8.03,31.35-14.55,48-27,17.41-13.02,29.14-26.04,39-37,8.12-9.02,17.13-19.03,27-34,9.35-14.18,15.9-28.45,29-57,5.17-11.27,7.62-17.21,10-24,2.36-6.72,5.7-17.29,9-34,2.79-14.1,6.76-34.2,7-61,.16-17.95.19-45.04-10-77Z"/>
    <polygon class="cls-8" points="1053.69 537.34 1053.69 537.34 1053.69 537.35 1053.69 537.34"/>
    <g>
      <path class="cls-9" d="M1037.83,420.73c-6.29-15.34-13.18-28.76-19.87-40.2-3.25-5.55-5.65-9.6-6.29-10.64-2.85-4.61-11.24-17.9-21.53-30.54-14.76-18.12-31-31.91-41.4-40.02-15.31-11.69-34.92-24.69-58.96-36.46-14.62-7.16-32.8-14.78-54.3-21.22-8.55-1.8-17.61-3.47-27.16-4.92-9.35-1.41-18.32-2.48-26.85-3.28h-108.31v603.66c59.64,4.57,141.16,2.38,154.02-.64,37.8-8.89,64.6-24.75,80.49-34.32,13.36-8.04,24.32-15.94,32.79-22.55,10.88-7.47,23.79-17.7,36.77-31.38,11.56-12.19,20.31-24.1,26.83-34.32,10.99-17.78,22.45-39.04,32.79-63.73,2.47-5.91,4.64-11.07,6.8-17.2,4.74-13.46,7.5-25,9.14-33.13,5.05-24.22,6.62-45.27,6.91-61.45.24-13.2.89-35-4.97-62.75-3.38-15.98-8.61-34.69-16.89-54.91Z"/>
      <path class="cls-6" d="M1325.4,476.62c-9.08-53.29-26.62-91.71-39.51-119.45-26.28-56.55-55.73-94.75-65.19-106.67-51.79-65.22-106.69-101.08-142.24-123.88-12.56-8.05-61.96-39.13-133.35-65.87-66.11-24.76-119.68-34.01-154.09-39.82-46.72-7.88-89.63-11.45-127.42-12.56H235.4v223.45h170.39v610.55h-170.39v237.86h416.34c105.8,1.96,188.25-15.81,241.51-31.39,53.39-15.62,90.94-32.97,102.23-38.34,39.55-18.83,90.13-47.68,142.24-91.43,56.51-47.46,95.64-96.35,121.49-134.2,16.2-23.72,44.68-72.45,60.75-143.05,18.27-80.28,8.94-144.59,5.43-165.17ZM1059.69,538.39c-.29,16.18-1.87,37.23-6.91,61.45-1.64,8.13-4.4,19.67-9.14,33.13-2.16,6.13-4.33,11.3-6.8,17.2-10.34,24.69-21.81,45.95-32.79,63.73-6.52,10.22-15.27,22.13-26.83,34.32-12.97,13.68-25.89,23.91-36.77,31.38-8.47,6.61-19.43,14.51-32.79,22.55-15.89,9.57-42.69,25.43-80.49,34.32-12.86,3.02-94.38,5.21-154.02.64V233.45h108.31c8.53.8,17.5,1.86,26.85,3.28,9.55,1.44,18.62,3.11,27.16,4.92,21.5,6.44,39.68,14.07,54.3,21.22,24.04,11.77,43.66,24.77,58.96,36.46,10.4,8.12,26.64,21.9,41.4,40.02,10.29,12.64,18.68,25.93,21.53,30.54.64,1.04,3.04,5.09,6.29,10.64,6.69,11.44,13.59,24.86,19.87,40.2,8.28,20.22,13.52,38.93,16.89,54.91,5.86,27.75,5.21,49.56,4.97,62.75Z"/>
    </g>
    <rect class="cls-7" x="226.96" y="13.6" width=".16" height="9.58"/>
    <rect class="cls-7" x="265.91" y="62.73" width="197.43" height="13.87"/>
    <path class="cls-7" d="M415.15,82.87v8.25h350.3c-.45-1.08-.7-2.27-.7-3.52,0-1.73.49-3.35,1.32-4.73h-349.34c118.88.23-1.58,0-1.58,0Z"/>
    <path class="cls-7" d="M773.38,91.12h-7.93c1.38,3.35,4.68,5.71,8.53,5.71,5.1,0,9.23-4.13,9.23-9.23s-4.13-9.23-9.23-9.23c-3.36,0-6.3,1.81-7.91,4.49h7.31v8.25Z"/>
    <path class="cls-7" d="M765.45,91.12h7.93v-8.25h-7.31c-.83,1.38-1.32,3-1.32,4.73,0,1.25.25,2.43.7,3.52Z"/>
    <rect class="cls-7" x="266.05" y="1009.23" width="197.43" height="13.87"/>
    <rect class="cls-7" x="226.62" y="1044.93" width=".5" height="12.22"/>
    <rect class="cls-7" x="227.12" y="1044.93" width="182.66" height="12.22"/>
    <path class="cls-7" d="M764.06,992.8h-347.16c118.88.23-1.58,0-1.58,0v8.25h348.73c-.62-1.24-.98-2.64-.98-4.12s.36-2.89.99-4.13Z"/>
    <path class="cls-7" d="M772.3,987.71c-3.61,0-6.72,2.08-8.24,5.1h9.49v8.25h-9.5c1.51,3.03,4.63,5.11,8.25,5.11,5.1,0,9.23-4.13,9.23-9.23s-4.13-9.23-9.23-9.23Z"/>
    <path class="cls-7" d="M773.55,992.8h-9.49c-.62,1.24-.99,2.64-.99,4.13s.36,2.88.98,4.12h9.5v-8.25Z"/>
    <rect class="cls-7" x="226.62" y="1063.71" width=".5" height="9.58"/>
    <rect class="cls-7" x="227.12" y="1063.71" width="259.57" height="9.58"/>
    <rect class="cls-7" x="226.62" y="937.17" width=".5" height="10.4"/>
    <rect class="cls-7" x="227.12" y="937.17" width="334.88" height="10.4"/>
    <path class="cls-1" d="M810.82,967.06l-419.95-.33v6.27l419.67,1.31c-.32-1.02-.5-2.12-.5-3.25,0-1.41.28-2.76.78-4Z"/>
    <path class="cls-7" d="M820.79,960.31c-4.52,0-8.38,2.79-9.96,6.74h6.13v7.27l-6.41-.02c1.38,4.34,5.44,7.49,10.24,7.49,5.93,0,10.74-4.81,10.74-10.74s-4.81-10.74-10.74-10.74Z"/>
    <path class="cls-7" d="M816.96,967.06h-6.13c-.5,1.23-.78,2.58-.78,3.99,0,1.13.18,2.22.5,3.25l6.41.02v-7.26Z"/>
    <path class="cls-1" d="M391.19,113.49l419.2,1.31c-.44-1.18-.69-2.44-.69-3.77,0-1.22.21-2.38.59-3.47l-419.09-.33v6.27Z"/>
    <path class="cls-7" d="M817.28,114.82l-6.89-.02c1.53,4.07,5.44,6.97,10.05,6.97,5.93,0,10.74-4.81,10.74-10.74s-4.81-10.74-10.74-10.74c-4.71,0-8.71,3.04-10.16,7.27h7v7.27Z"/>
    <path class="cls-7" d="M810.39,114.8l6.89.02v-7.26h-7c-.37,1.09-.59,2.25-.59,3.47,0,1.33.25,2.6.69,3.77Z"/>
    <path class="cls-7" d="M568.06,178.29c-4.63,0-8.64,2.62-10.65,6.45h4.99v11.09h-5.03c2,3.87,6.03,6.52,10.69,6.52,6.64,0,12.03-5.39,12.03-12.03s-5.39-12.03-12.03-12.03Z"/>
    <path class="cls-7" d="M562.4,184.73h-4.99c-.88,1.67-1.38,3.57-1.38,5.58s.49,3.86,1.34,5.51h5.03v-11.09Z"/>
    <path class="cls-7" d="M226.63,876.39v11.09h.49v-11.09c-.32,0-.49,0-.49,0Z"/>
    <path class="cls-7" d="M555.93,881.97c0-2.02.5-3.91,1.36-5.58H228.11c107.06.29,6.92.02-.99,0v11.09h330.13c-.84-1.65-1.33-3.52-1.33-5.51Z"/>
    <path class="cls-7" d="M562.22,887.48h-4.97c1.97,3.87,5.95,6.52,10.55,6.52,6.56,0,11.88-5.39,11.88-12.03s-5.32-12.03-11.88-12.03c-4.57,0-8.53,2.62-10.52,6.45h4.93v11.09Z"/>
    <path class="cls-7" d="M557.25,887.48h4.97v-11.09h-4.93c-.87,1.67-1.36,3.57-1.36,5.58s.48,3.86,1.33,5.51Z"/>
    <g id="Calque_1-2">
      <path class="cls-2" d="M1279.23,7.43h448.91v455.06c-27.45-69.68-59.31-124.45-85.49-163.76-22.86-34.31-55.8-83.13-112.23-135.68-48.18-44.87-91.56-72.05-118.3-88.61-50.18-31.07-96.32-52.42-132.89-67.03h0Z"/>
      <path class="cls-2" d="M377.4,1077.36c-2.57-56.94-.83-220.36-1-230-.46-26.35-3.05-52.78-15-119-10.2-56.5-18-92-18-92-11.51-52.35-32.87-143.78-70-271-9.65-33.08-23.41-78.98-41.04-133.82,146.32.55,292.64,1.1,438.96,1.65-64.12,47.02-98.71,97.95-116.46,129.28-57.19,100.93-55.83,203.42-55.11,261.59.62,50.01,5.83,88.19,8.64,104.43,8.08,46.76,20.57,85.58,32.01,114.86,8.86-19.21,21.88-46.3,39-78,21.46-39.75,34.34-58.96,92.68-148.66,0,0,96.4-148.15,135.18-190.32,12.73-13.85,24.82-26.15,37.08-37.78,13.77-13.06,59.93-56.94,129.72-104.68,61.19-41.88,116.15-70.07,152.34-87.02,63.21-29.61,123.16-50.29,176.65-64.87,27.95,7.62,49.67,17.4,64.82,25.31,43.19,22.56,73.19,51,93.97,70.97,6.47,6.22,11.68,11.54,15.22,15.24,0,0,18.74,19.6,33.43,38.8,15.64,20.46,38.96,60.92,59.81,116.07-17.6-1.78-35.19-3.54-52.79-5.32,0,0-26.39-3.72-74.52-5.61-2.47-.1-4.23-.15-5.43-.19-21.7-.76-37.02.51-61.58,2.64-64.92,5.62-118.18,10.24-181.51,28.48-83.54,24.06-141.66,59.43-154.49,67.51-14.02,8.83-69.72,44.75-136.67,121.83-2.51,2.89-5.46,6.32-8.84,10.41-64.98,78.42-111.57,170.53-132.69,213.22-43.85,88.61-82.04,171.19-115.36,246.98-89.67-.33-179.33-.67-269-1Z"/>
      <g>
        <path class="cls-4" d="M868.97,746.21c-1.92,0-3.56-.66-4.89-1.98-1.34-1.3-2.02-2.92-2.02-4.78s.68-3.42,2-4.74c1.33-1.31,3.02-2.02,4.92-2.02h7.92v-31.51h-7.81c-1.89,0-3.59-.7-4.92-2.02-1.33-1.33-2-2.92-2-4.74s.68-3.47,1.99-4.81c1.33-1.35,3.03-2.05,4.93-2.05h14.85c1.9,0,3.61.71,4.93,2.05s1.99,2.97,1.99,4.81v38.27h7.7c1.89,0,3.56.65,4.93,1.94,1.38,1.29,2.1,2.95,2.1,4.81s-.71,3.51-2.07,4.79c-1.35,1.3-2.99,1.97-4.86,1.97h-29.71ZM878.71,680.57c-1.94,0-3.68-.73-5-2.1-1.33-1.38-1.98-2.97-1.92-4.72l.11-4.18c0-1.82.68-3.42,2.02-4.73s2.99-1.98,4.89-1.98h5.11c1.9,0,3.56.66,4.89,1.98,1.34,1.31,2.03,2.92,2.03,4.78v4.08c0,1.85-.68,3.47-1.99,4.81-1.33,1.35-3.03,2.05-4.93,2.05h-5.22,0Z"/>
        <path class="cls-4" d="M910.66,744.22h-29.69c-13.35,0-14.5-.46-15.46-1.39s-1.43-2.05-1.43-3.37.48-2.39,1.43-3.34c.95-.94,2.1-1.41,3.46-1.41h9.98v-35.5h-9.86c-1.35,0-2.5-.48-3.46-1.41s-1.43-2.05-1.43-3.34.48-2.47,1.43-3.43,2.1-1.44,3.46-1.44h14.85c1.35,0,2.5.48,3.46,1.44s1.43,2.1,1.43,3.43v40.26h9.74c1.35,0,2.53.46,3.51,1.39.99.93,1.48,2.05,1.48,3.37s-.49,2.44-1.45,3.37c-.96.93-2.1,1.39-3.42,1.39h12ZM878.82,664.87h5.11c1.35,0,2.5.46,3.46,1.39s1.43,2.05,1.43,3.37v4.08c0,1.33-.48,2.47-1.43,3.43s-2.1,1.44-3.46,1.44h-5.22c-1.39,0-2.57-.49-3.51-1.48-.95-.98-1.4-2.08-1.36-3.28l.11-4.19c0-1.33.48-2.44,1.43-3.37s2.1-1.39,3.46-1.39h-.01Z"/>
        <path class="cls-4" d="M956.49,746.32c-1.94,0-3.62-.66-4.97-1.97-.54-.51-.99-1.1-1.31-1.73l-6.38,3.68h-17.06c-4.64,0-8.65-1.6-11.91-4.77-3.25-3.17-4.89-7.07-4.89-11.6v-5.55c0-4.49,1.65-8.39,4.93-11.58,3.27-3.19,7.26-4.81,11.88-4.81h19.12c.68,0,1.49.08,2.44.23l-.08-4.26c0-.81-.26-1.44-.83-1.99-.56-.55-1.2-.8-2.02-.8h-18.54c-1.88,0-3.52-.68-4.88-2-1.34-1.31-2.05-2.95-2.05-4.76s.68-3.48,2.03-4.78,2.99-1.98,4.91-1.98h18.53c4.57,0,8.53,1.59,11.76,4.71,3.22,3.12,4.92,6.99,5.05,11.5l1.21,35.62c0,1.92-.71,3.57-2.07,4.87-1.35,1.3-2.99,1.97-4.86,1.97h0ZM926.73,721.75c-.81,0-1.45.25-2,.8-.56.55-.83,1.16-.83,1.95v5.32c0,.75.28,1.36.85,1.93.58.56,1.21.83,1.98.83h13.21l9.05-5.16-.2-2.78c-.03-.93-.3-1.58-.85-2.13-.54-.53-1.16-.78-1.98-.78h-19.23Z"/>
        <path class="cls-4" d="M926.74,710h19.12c1.04,0,2.55.23,4.53.68l-.11-6.74c0-1.31-.48-2.44-1.43-3.37s-2.1-1.39-3.46-1.39h-18.54c-1.31,0-2.47-.48-3.43-1.41s-1.45-2.05-1.45-3.34.48-2.44,1.43-3.37,2.1-1.39,3.46-1.39h18.53c4.03,0,7.46,1.38,10.32,4.13,2.84,2.75,4.33,6.13,4.44,10.14l1.21,35.63c0,1.33-.49,2.44-1.45,3.37-.96.93-2.1,1.39-3.42,1.39-1.39,0-2.57-.46-3.54-1.39-.96-.93-1.45-2.05-1.45-3.37l3.75,4.76h-16.5c-16.11,0-19.59-1.4-22.45-4.19s-4.29-6.2-4.29-10.19v-5.55c0-3.97,1.44-7.35,4.33-10.17,2.88-2.82,6.36-4.22,10.43-4.22h-.01ZM951.12,728.52l-.29-4.02c-.04-1.36-.53-2.49-1.45-3.39s-2.07-1.36-3.43-1.36h-19.22c-1.35,0-2.5.46-3.46,1.39s-1.43,2.05-1.43,3.37v5.32c0,1.29.49,2.4,1.45,3.34.96.94,2.12,1.41,3.43,1.41h13.76l10.63-6.06h0Z"/>
      </g>
    </g>
    <polygon class="cls-5" points="5 9.36 230.21 9.36 225.9 843.13 369.9 843.13 369.69 1080.36 5 1080.36 5 9.36"/>
    <g>
      <path class="cls-7" d="M342.92,1052.48c-1.91,0-3.54-.66-4.87-1.96-.92-.91-1.53-1.96-1.82-3.14l-8.64,5.1h-19.72c-5.09,0-9.47-1.8-13.03-5.35-3.56-3.55-5.36-7.93-5.36-13.01v-6.7c0-5.04,1.81-9.41,5.39-12.98,3.58-3.57,7.95-5.38,12.99-5.38h22.52c1.08,0,2.5.19,4.32.57l-.11-6.87c0-1.35-.45-2.44-1.38-3.38-.93-.93-2.04-1.38-3.37-1.38h-21.85c-1.82,0-3.42-.67-4.75-2-1.33-1.33-2.01-2.92-2.01-4.74s.66-3.47,1.97-4.77c1.31-1.31,2.92-1.97,4.78-1.97h21.84c5,0,9.32,1.78,12.86,5.28,3.53,3.5,5.39,7.84,5.53,12.92l1.43,42.99c0,1.9-.67,3.51-2.01,4.81-1.33,1.3-2.92,1.96-4.73,1.96ZM307.85,1022.81c-1.33,0-2.43.45-3.36,1.38-.93.93-1.38,2.03-1.38,3.36v6.43c0,1.29.46,2.37,1.42,3.33.96.95,2.04,1.42,3.33,1.42h15.95l11.75-6.86-.3-4.23c-.04-1.43-.5-2.55-1.42-3.46-.91-.91-2-1.35-3.33-1.35h-22.65Z"/>
      <path class="cls-7" d="M307.87,1010.05h22.52c1.23,0,3.01.27,5.34.82l-.13-8.13c0-1.59-.56-2.95-1.68-4.07-1.12-1.12-2.48-1.67-4.08-1.67h-21.85c-1.55,0-2.9-.57-4.04-1.71-1.14-1.14-1.71-2.48-1.71-4.03s.56-2.95,1.68-4.07c1.12-1.12,2.48-1.67,4.07-1.67h21.84c4.75,0,8.8,1.66,12.15,4.99,3.36,3.33,5.1,7.41,5.24,12.24l1.44,43c0,1.6-.57,2.95-1.71,4.07-1.14,1.12-2.48,1.67-4.03,1.67-1.64,0-3.03-.56-4.17-1.67-1.14-1.12-1.71-2.47-1.71-4.07l-9.72,5.74h-19.44c-4.84,0-8.95-1.69-12.32-5.06-3.38-3.37-5.07-7.47-5.07-12.3v-6.7c0-4.79,1.7-8.88,5.1-12.27,3.4-3.39,7.5-5.09,12.29-5.09ZM336.59,1032.4l-.34-4.85c-.05-1.64-.62-3.01-1.71-4.1s-2.44-1.64-4.04-1.64h-22.65c-1.6,0-2.95.56-4.07,1.67-1.12,1.12-1.68,2.47-1.68,4.07v6.43c0,1.55.57,2.89,1.71,4.03,1.14,1.14,2.49,1.71,4.04,1.71h16.22l12.52-7.31Z"/>
    </g>
    <g>
      <path class="cls-7" d="M38.24,77.73c0,3.62-.27,6.66-.82,9.14-.55,2.48-1.3,4.49-2.26,6.02-.96,1.53-2.09,2.63-3.41,3.3-1.32.67-2.75,1.01-4.31,1.01s-2.99-.33-4.3-.99c-1.31-.66-2.43-1.76-3.37-3.29-.94-1.53-1.67-3.54-2.2-6.02-.53-2.48-.79-5.54-.79-9.17,0-3.81.26-6.97.79-9.47.53-2.5,1.27-4.49,2.22-5.98.95-1.49,2.09-2.53,3.42-3.13,1.33-.6,2.81-.9,4.42-.9,1.5,0,2.9.3,4.2.9,1.3.6,2.42,1.64,3.37,3.13.95,1.49,1.69,3.48,2.23,5.98.54,2.5.81,5.65.81,9.47ZM32.04,77.73c0-2.67-.08-4.87-.24-6.62-.16-1.75-.42-3.13-.78-4.16-.36-1.03-.82-1.75-1.38-2.16-.56-.41-1.25-.62-2.05-.62-.86,0-1.58.21-2.18.63-.59.42-1.07,1.15-1.42,2.19-.36,1.04-.61,2.43-.77,4.18-.15,1.75-.23,3.93-.23,6.57s.08,4.76.24,6.5c.16,1.74.42,3.13.77,4.18.35,1.05.81,1.79,1.38,2.22.57.43,1.28.64,2.12.64s1.49-.21,2.07-.64c.57-.43,1.04-1.17,1.41-2.22.37-1.05.64-2.44.81-4.18.17-1.74.25-3.9.25-6.5Z"/>
      <path class="cls-7" d="M42.94,96.66v-5.61h7.68v-25.81l-7.44,5.67v-5.94l7.76-6.15h5.85v32.23h7.12v5.61h-20.97Z"/>
      <path class="cls-7" d="M88.41,77.73c0,3.62-.27,6.66-.82,9.14-.55,2.48-1.3,4.49-2.26,6.02-.96,1.53-2.09,2.63-3.41,3.3-1.32.67-2.75,1.01-4.31,1.01s-2.99-.33-4.3-.99c-1.31-.66-2.43-1.76-3.37-3.29-.94-1.53-1.67-3.54-2.2-6.02-.53-2.48-.79-5.54-.79-9.17,0-3.81.26-6.97.79-9.47.53-2.5,1.27-4.49,2.22-5.98.95-1.49,2.09-2.53,3.42-3.13,1.33-.6,2.81-.9,4.42-.9,1.5,0,2.9.3,4.2.9,1.3.6,2.42,1.64,3.37,3.13.95,1.49,1.69,3.48,2.23,5.98.54,2.5.81,5.65.81,9.47ZM82.2,77.73c0-2.67-.08-4.87-.24-6.62-.16-1.75-.42-3.13-.78-4.16-.36-1.03-.82-1.75-1.38-2.16-.56-.41-1.25-.62-2.05-.62-.86,0-1.58.21-2.18.63-.59.42-1.07,1.15-1.42,2.19-.36,1.04-.61,2.43-.77,4.18-.15,1.75-.23,3.93-.23,6.57s.08,4.76.24,6.5c.16,1.74.42,3.13.77,4.18.35,1.05.81,1.79,1.38,2.22.57.43,1.28.64,2.12.64s1.49-.21,2.07-.64c.57-.43,1.04-1.17,1.41-2.22.37-1.05.64-2.44.81-4.18.17-1.74.25-3.9.25-6.5Z"/>
      <path class="cls-7" d="M113.49,77.73c0,3.62-.27,6.66-.82,9.14-.55,2.48-1.3,4.49-2.26,6.02-.96,1.53-2.09,2.63-3.41,3.3-1.32.67-2.75,1.01-4.31,1.01s-2.99-.33-4.3-.99c-1.31-.66-2.43-1.76-3.37-3.29-.94-1.53-1.67-3.54-2.2-6.02-.53-2.48-.79-5.54-.79-9.17,0-3.81.26-6.97.79-9.47.53-2.5,1.27-4.49,2.22-5.98.95-1.49,2.09-2.53,3.42-3.13,1.33-.6,2.81-.9,4.42-.9,1.5,0,2.9.3,4.2.9,1.3.6,2.42,1.64,3.37,3.13.95,1.49,1.69,3.48,2.23,5.98.54,2.5.81,5.65.81,9.47ZM107.29,77.73c0-2.67-.08-4.87-.24-6.62-.16-1.75-.42-3.13-.78-4.16-.36-1.03-.82-1.75-1.38-2.16-.56-.41-1.25-.62-2.05-.62-.86,0-1.58.21-2.18.63-.59.42-1.07,1.15-1.42,2.19-.36,1.04-.61,2.43-.77,4.18-.15,1.75-.23,3.93-.23,6.57s.08,4.76.24,6.5c.16,1.74.42,3.13.77,4.18.35,1.05.81,1.79,1.38,2.22.57.43,1.28.64,2.12.64s1.49-.21,2.07-.64c.57-.43,1.04-1.17,1.41-2.22.37-1.05.64-2.44.81-4.18.17-1.74.25-3.9.25-6.5Z"/>
      <path class="cls-7" d="M118.19,96.66v-5.61h7.68v-25.81l-7.44,5.67v-5.94l7.76-6.15h5.85v32.23h7.12v5.61h-20.97Z"/>
      <path class="cls-7" d="M140.8,96.66v-5.61h7.68v-25.81l-7.44,5.67v-5.94l7.76-6.15h5.85v32.23h7.12v5.61h-20.97Z"/>
      <path class="cls-7" d="M186.27,77.73c0,3.62-.27,6.66-.82,9.14-.55,2.48-1.3,4.49-2.26,6.02-.96,1.53-2.09,2.63-3.41,3.3-1.32.67-2.75,1.01-4.31,1.01s-2.99-.33-4.3-.99c-1.31-.66-2.43-1.76-3.37-3.29-.94-1.53-1.67-3.54-2.2-6.02-.53-2.48-.79-5.54-.79-9.17,0-3.81.26-6.97.79-9.47.53-2.5,1.27-4.49,2.22-5.98.95-1.49,2.09-2.53,3.42-3.13,1.33-.6,2.81-.9,4.42-.9,1.5,0,2.9.3,4.2.9,1.3.6,2.42,1.64,3.37,3.13.95,1.49,1.69,3.48,2.23,5.98.54,2.5.81,5.65.81,9.47ZM180.06,77.73c0-2.67-.08-4.87-.24-6.62-.16-1.75-.42-3.13-.78-4.16-.36-1.03-.82-1.75-1.38-2.16-.56-.41-1.25-.62-2.05-.62-.86,0-1.58.21-2.18.63-.59.42-1.07,1.15-1.42,2.19-.36,1.04-.61,2.43-.77,4.18-.15,1.75-.23,3.93-.23,6.57s.08,4.76.24,6.5c.16,1.74.42,3.13.77,4.18.35,1.05.81,1.79,1.38,2.22.57.43,1.28.64,2.12.64s1.49-.21,2.07-.64c.57-.43,1.04-1.17,1.41-2.22.37-1.05.64-2.44.81-4.18.17-1.74.25-3.9.25-6.5Z"/>
      <path class="cls-7" d="M211.35,77.73c0,3.62-.27,6.66-.82,9.14-.55,2.48-1.3,4.49-2.26,6.02-.96,1.53-2.09,2.63-3.41,3.3-1.32.67-2.75,1.01-4.31,1.01s-2.99-.33-4.3-.99c-1.31-.66-2.43-1.76-3.37-3.29-.94-1.53-1.67-3.54-2.2-6.02-.53-2.48-.79-5.54-.79-9.17,0-3.81.26-6.97.79-9.47.53-2.5,1.27-4.49,2.22-5.98.95-1.49,2.09-2.53,3.42-3.13,1.33-.6,2.81-.9,4.42-.9,1.5,0,2.9.3,4.2.9,1.3.6,2.42,1.64,3.37,3.13.95,1.49,1.69,3.48,2.23,5.98.54,2.5.81,5.65.81,9.47ZM205.15,77.73c0-2.67-.08-4.87-.24-6.62-.16-1.75-.42-3.13-.78-4.16-.36-1.03-.82-1.75-1.38-2.16-.56-.41-1.25-.62-2.05-.62-.86,0-1.58.21-2.18.63-.59.42-1.07,1.15-1.42,2.19-.36,1.04-.61,2.43-.77,4.18-.15,1.75-.23,3.93-.23,6.57s.08,4.76.24,6.5c.16,1.74.42,3.13.77,4.18.35,1.05.81,1.79,1.38,2.22.57.43,1.28.64,2.12.64s1.49-.21,2.07-.64c.57-.43,1.04-1.17,1.41-2.22.37-1.05.64-2.44.81-4.18.17-1.74.25-3.9.25-6.5Z"/>
    </g>
    <g>
      <path class="cls-7" d="M18.68,143.03v-5.61h7.68v-25.81l-7.44,5.67v-5.94l7.76-6.15h5.85v32.23h7.12v5.61h-20.97Z"/>
      <path class="cls-7" d="M64.15,124.1c0,3.62-.27,6.66-.82,9.14-.55,2.48-1.3,4.49-2.26,6.02-.96,1.53-2.09,2.63-3.41,3.3-1.32.67-2.75,1.01-4.31,1.01s-2.99-.33-4.3-.99c-1.31-.66-2.43-1.76-3.37-3.29-.94-1.53-1.67-3.54-2.2-6.02-.53-2.48-.79-5.54-.79-9.17,0-3.81.26-6.97.79-9.47.53-2.5,1.27-4.49,2.22-5.98.95-1.49,2.09-2.53,3.42-3.13,1.33-.6,2.81-.9,4.42-.9,1.5,0,2.9.3,4.2.9,1.3.6,2.42,1.64,3.37,3.13.95,1.49,1.69,3.48,2.23,5.98.54,2.5.81,5.65.81,9.47ZM57.94,124.1c0-2.67-.08-4.87-.24-6.62-.16-1.75-.42-3.13-.78-4.16-.36-1.03-.82-1.75-1.38-2.16-.56-.41-1.25-.62-2.05-.62-.86,0-1.58.21-2.18.63-.59.42-1.07,1.15-1.42,2.19-.36,1.04-.61,2.43-.77,4.18-.15,1.75-.23,3.93-.23,6.57s.08,4.76.24,6.5c.16,1.74.42,3.13.77,4.18.35,1.05.81,1.79,1.38,2.22.57.43,1.28.64,2.12.64s1.49-.21,2.07-.64c.57-.43,1.04-1.17,1.41-2.22.37-1.05.64-2.44.81-4.18.17-1.74.25-3.9.25-6.5Z"/>
      <path class="cls-7" d="M68.85,143.03v-5.61h7.68v-25.81l-7.44,5.67v-5.94l7.76-6.15h5.85v32.23h7.12v5.61h-20.97Z"/>
      <path class="cls-7" d="M114.31,124.1c0,3.62-.27,6.66-.82,9.14-.55,2.48-1.3,4.49-2.26,6.02-.96,1.53-2.09,2.63-3.41,3.3-1.32.67-2.75,1.01-4.31,1.01s-2.99-.33-4.3-.99c-1.31-.66-2.43-1.76-3.37-3.29-.94-1.53-1.67-3.54-2.2-6.02-.53-2.48-.79-5.54-.79-9.17,0-3.81.26-6.97.79-9.47.53-2.5,1.27-4.49,2.22-5.98.95-1.49,2.09-2.53,3.42-3.13,1.33-.6,2.81-.9,4.42-.9,1.5,0,2.9.3,4.2.9,1.3.6,2.42,1.64,3.37,3.13.95,1.49,1.69,3.48,2.23,5.98.54,2.5.81,5.65.81,9.47ZM108.11,124.1c0-2.67-.08-4.87-.24-6.62-.16-1.75-.42-3.13-.78-4.16-.36-1.03-.82-1.75-1.38-2.16-.56-.41-1.25-.62-2.05-.62-.86,0-1.58.21-2.18.63-.59.42-1.07,1.15-1.42,2.19-.36,1.04-.61,2.43-.77,4.18-.15,1.75-.23,3.93-.23,6.57s.08,4.76.24,6.5c.16,1.74.42,3.13.77,4.18.35,1.05.81,1.79,1.38,2.22.57.43,1.28.64,2.12.64s1.49-.21,2.07-.64c.57-.43,1.04-1.17,1.41-2.22.37-1.05.64-2.44.81-4.18.17-1.74.25-3.9.25-6.5Z"/>
      <path class="cls-7" d="M119.01,143.03v-5.61h7.68v-25.81l-7.44,5.67v-5.94l7.76-6.15h5.85v32.23h7.12v5.61h-20.97Z"/>
      <path class="cls-7" d="M141.63,143.03v-5.61h7.68v-25.81l-7.44,5.67v-5.94l7.76-6.15h5.85v32.23h7.12v5.61h-20.97Z"/>
      <path class="cls-7" d="M187.09,124.1c0,3.62-.27,6.66-.82,9.14-.55,2.48-1.3,4.49-2.26,6.02-.96,1.53-2.09,2.63-3.41,3.3-1.32.67-2.75,1.01-4.31,1.01s-2.99-.33-4.3-.99c-1.31-.66-2.43-1.76-3.37-3.29-.94-1.53-1.67-3.54-2.2-6.02-.53-2.48-.79-5.54-.79-9.17,0-3.81.26-6.97.79-9.47.53-2.5,1.27-4.49,2.22-5.98.95-1.49,2.09-2.53,3.42-3.13,1.33-.6,2.81-.9,4.42-.9,1.5,0,2.9.3,4.2.9,1.3.6,2.42,1.64,3.37,3.13.95,1.49,1.69,3.48,2.23,5.98.54,2.5.81,5.65.81,9.47ZM180.89,124.1c0-2.67-.08-4.87-.24-6.62-.16-1.75-.42-3.13-.78-4.16-.36-1.03-.82-1.75-1.38-2.16-.56-.41-1.25-.62-2.05-.62-.86,0-1.58.21-2.18.63-.59.42-1.07,1.15-1.42,2.19-.36,1.04-.61,2.43-.77,4.18-.15,1.75-.23,3.93-.23,6.57s.08,4.76.24,6.5c.16,1.74.42,3.13.77,4.18.35,1.05.81,1.79,1.38,2.22.57.43,1.28.64,2.12.64s1.49-.21,2.07-.64c.57-.43,1.04-1.17,1.41-2.22.37-1.05.63-2.44.81-4.18.17-1.74.25-3.9.25-6.5Z"/>
    </g>
    <g>
      <path class="cls-7" d="M37.28,222.93c0,3.62-.27,6.66-.82,9.14-.55,2.48-1.3,4.49-2.26,6.02-.96,1.53-2.09,2.63-3.41,3.3-1.32.67-2.75,1.01-4.31,1.01s-2.99-.33-4.3-.99c-1.31-.66-2.43-1.76-3.37-3.29-.94-1.53-1.67-3.54-2.2-6.02-.53-2.48-.79-5.54-.79-9.17,0-3.81.26-6.97.79-9.47.53-2.5,1.27-4.49,2.22-5.98.95-1.49,2.09-2.53,3.42-3.13,1.33-.6,2.81-.9,4.42-.9,1.5,0,2.9.3,4.2.9,1.3.6,2.42,1.64,3.37,3.13.95,1.49,1.69,3.48,2.23,5.98.54,2.5.81,5.65.81,9.47ZM31.08,222.93c0-2.67-.08-4.87-.24-6.62-.16-1.75-.42-3.13-.78-4.16-.36-1.03-.82-1.75-1.38-2.16-.56-.41-1.25-.62-2.05-.62-.86,0-1.58.21-2.18.63-.59.42-1.07,1.15-1.42,2.19-.36,1.04-.61,2.43-.77,4.18-.15,1.75-.23,3.93-.23,6.57s.08,4.76.24,6.5c.16,1.74.42,3.13.77,4.18.35,1.05.81,1.79,1.38,2.22.57.43,1.28.64,2.12.64s1.49-.21,2.07-.64c.57-.43,1.04-1.17,1.41-2.22.37-1.05.64-2.44.81-4.18.17-1.74.25-3.9.25-6.5Z"/>
      <path class="cls-7" d="M41.98,241.87v-5.61h7.68v-25.81l-7.44,5.67v-5.94l7.76-6.15h5.85v32.23h7.12v5.61h-20.97Z"/>
      <path class="cls-7" d="M87.45,222.93c0,3.62-.27,6.66-.82,9.14-.55,2.48-1.3,4.49-2.26,6.02-.96,1.53-2.09,2.63-3.41,3.3-1.32.67-2.75,1.01-4.31,1.01s-2.99-.33-4.3-.99c-1.31-.66-2.43-1.76-3.37-3.29-.94-1.53-1.67-3.54-2.2-6.02-.53-2.48-.79-5.54-.79-9.17,0-3.81.26-6.97.79-9.47.53-2.5,1.27-4.49,2.22-5.98.95-1.49,2.09-2.53,3.42-3.13,1.33-.6,2.81-.9,4.42-.9,1.5,0,2.9.3,4.2.9,1.3.6,2.42,1.64,3.37,3.13.95,1.49,1.69,3.48,2.23,5.98.54,2.5.81,5.65.81,9.47ZM81.24,222.93c0-2.67-.08-4.87-.24-6.62-.16-1.75-.42-3.13-.78-4.16-.36-1.03-.82-1.75-1.38-2.16-.56-.41-1.25-.62-2.05-.62-.86,0-1.58.21-2.18.63-.59.42-1.07,1.15-1.42,2.19-.36,1.04-.61,2.43-.77,4.18-.15,1.75-.23,3.93-.23,6.57s.08,4.76.24,6.5c.16,1.74.42,3.13.77,4.18.35,1.05.81,1.79,1.38,2.22.57.43,1.28.64,2.12.64s1.49-.21,2.07-.64c.57-.43,1.04-1.17,1.41-2.22.37-1.05.64-2.44.81-4.18.17-1.74.25-3.9.25-6.5Z"/>
      <path class="cls-7" d="M112.53,222.93c0,3.62-.27,6.66-.82,9.14-.55,2.48-1.3,4.49-2.26,6.02-.96,1.53-2.09,2.63-3.41,3.3-1.32.67-2.75,1.01-4.31,1.01s-2.99-.33-4.3-.99c-1.31-.66-2.43-1.76-3.37-3.29-.94-1.53-1.67-3.54-2.2-6.02-.53-2.48-.79-5.54-.79-9.17,0-3.81.26-6.97.79-9.47.53-2.5,1.27-4.49,2.22-5.98.95-1.49,2.09-2.53,3.42-3.13,1.33-.6,2.81-.9,4.42-.9,1.5,0,2.9.3,4.2.9,1.3.6,2.42,1.64,3.37,3.13.95,1.49,1.69,3.48,2.23,5.98.54,2.5.81,5.65.81,9.47ZM106.33,222.93c0-2.67-.08-4.87-.24-6.62-.16-1.75-.42-3.13-.78-4.16-.36-1.03-.82-1.75-1.38-2.16-.56-.41-1.25-.62-2.05-.62-.86,0-1.58.21-2.18.63-.59.42-1.07,1.15-1.42,2.19-.36,1.04-.61,2.43-.77,4.18-.15,1.75-.23,3.93-.23,6.57s.08,4.76.24,6.5c.16,1.74.42,3.13.77,4.18.35,1.05.81,1.79,1.38,2.22.57.43,1.28.64,2.12.64s1.49-.21,2.07-.64c.57-.43,1.04-1.17,1.41-2.22.37-1.05.64-2.44.81-4.18.17-1.74.25-3.9.25-6.5Z"/>
      <path class="cls-7" d="M137.61,222.93c0,3.62-.27,6.66-.82,9.14-.55,2.48-1.3,4.49-2.26,6.02-.96,1.53-2.09,2.63-3.41,3.3-1.32.67-2.75,1.01-4.31,1.01s-2.99-.33-4.3-.99c-1.31-.66-2.43-1.76-3.37-3.29-.94-1.53-1.67-3.54-2.2-6.02-.53-2.48-.79-5.54-.79-9.17,0-3.81.26-6.97.79-9.47.53-2.5,1.27-4.49,2.22-5.98.95-1.49,2.09-2.53,3.42-3.13,1.33-.6,2.81-.9,4.42-.9,1.5,0,2.9.3,4.2.9,1.3.6,2.42,1.64,3.37,3.13.95,1.49,1.69,3.48,2.23,5.98.54,2.5.81,5.65.81,9.47ZM131.41,222.93c0-2.67-.08-4.87-.24-6.62-.16-1.75-.42-3.13-.78-4.16-.36-1.03-.82-1.75-1.38-2.16-.56-.41-1.25-.62-2.05-.62-.86,0-1.58.21-2.18.63-.59.42-1.07,1.15-1.42,2.19-.36,1.04-.61,2.43-.77,4.18-.15,1.75-.23,3.93-.23,6.57s.08,4.76.24,6.5c.16,1.74.42,3.13.77,4.18.35,1.05.81,1.79,1.38,2.22.57.43,1.28.64,2.12.64s1.49-.21,2.07-.64c.57-.43,1.04-1.17,1.41-2.22.37-1.05.64-2.44.81-4.18.17-1.74.25-3.9.25-6.5Z"/>
      <path class="cls-7" d="M142.31,241.87v-5.61h7.68v-25.81l-7.44,5.67v-5.94l7.76-6.15h5.85v32.23h7.12v5.61h-20.97Z"/>
      <path class="cls-7" d="M187.78,222.93c0,3.62-.27,6.66-.82,9.14-.55,2.48-1.3,4.49-2.26,6.02-.96,1.53-2.09,2.63-3.41,3.3-1.32.67-2.75,1.01-4.31,1.01s-2.99-.33-4.3-.99c-1.31-.66-2.43-1.76-3.37-3.29-.94-1.53-1.67-3.54-2.2-6.02-.53-2.48-.79-5.54-.79-9.17,0-3.81.26-6.97.79-9.47.53-2.5,1.27-4.49,2.22-5.98.95-1.49,2.09-2.53,3.42-3.13,1.33-.6,2.81-.9,4.42-.9,1.5,0,2.9.3,4.2.9,1.3.6,2.42,1.64,3.37,3.13.95,1.49,1.69,3.48,2.23,5.98.54,2.5.81,5.65.81,9.47ZM181.58,222.93c0-2.67-.08-4.87-.24-6.62-.16-1.75-.42-3.13-.78-4.16-.36-1.03-.82-1.75-1.38-2.16-.56-.41-1.25-.62-2.05-.62-.86,0-1.58.21-2.18.63-.59.42-1.07,1.15-1.42,2.19-.36,1.04-.61,2.43-.77,4.18-.15,1.75-.23,3.93-.23,6.57s.08,4.76.24,6.5c.16,1.74.42,3.13.77,4.18.35,1.05.81,1.79,1.38,2.22.57.43,1.28.64,2.12.64s1.49-.21,2.07-.64c.57-.43,1.04-1.17,1.41-2.22.37-1.05.64-2.44.81-4.18.17-1.74.25-3.9.25-6.5Z"/>
      <path class="cls-7" d="M212.86,222.93c0,3.62-.27,6.66-.82,9.14-.55,2.48-1.3,4.49-2.26,6.02-.96,1.53-2.09,2.63-3.41,3.3-1.32.67-2.75,1.01-4.31,1.01s-2.99-.33-4.3-.99c-1.31-.66-2.43-1.76-3.37-3.29-.94-1.53-1.67-3.54-2.2-6.02-.53-2.48-.79-5.54-.79-9.17,0-3.81.26-6.97.79-9.47.53-2.5,1.27-4.49,2.22-5.98.95-1.49,2.09-2.53,3.42-3.13,1.33-.6,2.81-.9,4.42-.9,1.5,0,2.9.3,4.2.9,1.3.6,2.42,1.64,3.37,3.13.95,1.49,1.69,3.48,2.23,5.98.54,2.5.81,5.65.81,9.47ZM206.66,222.93c0-2.67-.08-4.87-.24-6.62-.16-1.75-.42-3.13-.78-4.16-.36-1.03-.82-1.75-1.38-2.16-.56-.41-1.25-.62-2.05-.62-.86,0-1.58.21-2.18.63-.59.42-1.07,1.15-1.42,2.19-.36,1.04-.61,2.43-.77,4.18-.15,1.75-.23,3.93-.23,6.57s.08,4.76.24,6.5c.16,1.74.42,3.13.77,4.18.35,1.05.81,1.79,1.38,2.22.57.43,1.28.64,2.12.64s1.49-.21,2.07-.64c.57-.43,1.04-1.17,1.41-2.22.37-1.05.64-2.44.81-4.18.17-1.74.25-3.9.25-6.5Z"/>
    </g>
    <path class="cls-7" d="M66.16,338.57c136.08.18-1.81,0-1.81,0v6.59h410.06v-6.59H66.16Z"/>
    <rect class="cls-7" x="35.88" y="313.41" width="327.52" height="8.31"/>
    <rect class="cls-7" x="586.4" y="966.36" width="140.81" height="7.39"/>
    <rect class="cls-7" x="116.38" y="373.07" width="298.02" height="8.31"/>
    <g>
      <path class="cls-7" d="M74.58,887.1c0,3.62-.27,6.67-.82,9.14-.55,2.48-1.3,4.49-2.26,6.02-.96,1.53-2.09,2.63-3.41,3.3-1.32.67-2.75,1.01-4.31,1.01s-2.99-.33-4.3-.99c-1.31-.66-2.43-1.76-3.37-3.29-.94-1.53-1.67-3.54-2.2-6.02-.53-2.48-.79-5.54-.79-9.17,0-3.81.26-6.97.79-9.47.53-2.5,1.27-4.49,2.22-5.98.95-1.49,2.09-2.53,3.42-3.13,1.33-.6,2.81-.9,4.42-.9,1.5,0,2.9.3,4.2.9,1.3.6,2.42,1.64,3.37,3.13.95,1.49,1.69,3.48,2.23,5.98.54,2.5.81,5.65.81,9.47ZM68.37,887.1c0-2.67-.08-4.87-.24-6.62-.16-1.75-.42-3.13-.78-4.16-.36-1.03-.82-1.75-1.38-2.16-.56-.41-1.25-.62-2.05-.62-.86,0-1.58.21-2.18.63s-1.07,1.15-1.42,2.19c-.36,1.04-.61,2.43-.77,4.18-.15,1.75-.23,3.93-.23,6.57s.08,4.76.24,6.5c.16,1.74.42,3.13.77,4.18.35,1.05.81,1.79,1.38,2.21.57.43,1.28.64,2.12.64s1.49-.21,2.07-.64c.57-.43,1.04-1.17,1.41-2.21.37-1.05.64-2.44.81-4.18.17-1.74.25-3.9.25-6.5Z"/>
      <path class="cls-7" d="M79.28,906.03v-5.61h7.68v-25.81l-7.44,5.67v-5.93l7.76-6.15h5.85v32.23h7.12v5.61h-20.97Z"/>
      <path class="cls-7" d="M124.74,887.1c0,3.62-.27,6.67-.82,9.14-.55,2.48-1.3,4.49-2.26,6.02-.96,1.53-2.09,2.63-3.41,3.3-1.32.67-2.75,1.01-4.31,1.01s-2.99-.33-4.3-.99c-1.31-.66-2.43-1.76-3.37-3.29-.94-1.53-1.67-3.54-2.2-6.02-.53-2.48-.79-5.54-.79-9.17,0-3.81.26-6.97.79-9.47.53-2.5,1.27-4.49,2.22-5.98.95-1.49,2.09-2.53,3.42-3.13,1.33-.6,2.81-.9,4.42-.9,1.5,0,2.9.3,4.2.9,1.3.6,2.42,1.64,3.37,3.13.95,1.49,1.69,3.48,2.23,5.98.54,2.5.81,5.65.81,9.47ZM118.54,887.1c0-2.67-.08-4.87-.24-6.62-.16-1.75-.42-3.13-.78-4.16-.36-1.03-.82-1.75-1.38-2.16-.56-.41-1.25-.62-2.05-.62-.86,0-1.58.21-2.18.63s-1.07,1.15-1.42,2.19c-.36,1.04-.61,2.43-.77,4.18-.15,1.75-.23,3.93-.23,6.57s.08,4.76.24,6.5c.16,1.74.42,3.13.77,4.18.35,1.05.81,1.79,1.38,2.21.57.43,1.28.64,2.12.64s1.49-.21,2.07-.64c.57-.43,1.04-1.17,1.41-2.21.37-1.05.64-2.44.81-4.18.17-1.74.25-3.9.25-6.5Z"/>
      <path class="cls-7" d="M149.83,887.1c0,3.62-.27,6.67-.82,9.14-.55,2.48-1.3,4.49-2.26,6.02-.96,1.53-2.09,2.63-3.41,3.3-1.32.67-2.75,1.01-4.31,1.01s-2.99-.33-4.3-.99c-1.31-.66-2.43-1.76-3.37-3.29-.94-1.53-1.67-3.54-2.2-6.02-.53-2.48-.79-5.54-.79-9.17,0-3.81.26-6.97.79-9.47.53-2.5,1.27-4.49,2.22-5.98.95-1.49,2.09-2.53,3.42-3.13,1.33-.6,2.81-.9,4.42-.9,1.5,0,2.9.3,4.2.9,1.3.6,2.42,1.64,3.37,3.13.95,1.49,1.69,3.48,2.23,5.98.54,2.5.81,5.65.81,9.47ZM143.62,887.1c0-2.67-.08-4.87-.24-6.62-.16-1.75-.42-3.13-.78-4.16-.36-1.03-.82-1.75-1.38-2.16-.56-.41-1.25-.62-2.05-.62-.86,0-1.58.21-2.18.63s-1.07,1.15-1.42,2.19c-.36,1.04-.61,2.43-.77,4.18-.15,1.75-.23,3.93-.23,6.57s.08,4.76.24,6.5c.16,1.74.42,3.13.77,4.18.35,1.05.81,1.79,1.38,2.21.57.43,1.28.64,2.12.64s1.49-.21,2.07-.64c.57-.43,1.04-1.17,1.41-2.21.37-1.05.64-2.44.81-4.18.17-1.74.25-3.9.25-6.5Z"/>
      <path class="cls-7" d="M154.53,906.03v-5.61h7.68v-25.81l-7.44,5.67v-5.93l7.76-6.15h5.85v32.23h7.12v5.61h-20.97Z"/>
      <path class="cls-7" d="M177.14,906.03v-5.61h7.68v-25.81l-7.44,5.67v-5.93l7.76-6.15h5.85v32.23h7.12v5.61h-20.97Z"/>
      <path class="cls-7" d="M222.6,887.1c0,3.62-.27,6.67-.82,9.14-.55,2.48-1.3,4.49-2.26,6.02-.96,1.53-2.09,2.63-3.41,3.3-1.32.67-2.75,1.01-4.31,1.01s-2.99-.33-4.3-.99c-1.31-.66-2.43-1.76-3.37-3.29-.94-1.53-1.67-3.54-2.2-6.02-.53-2.48-.79-5.54-.79-9.17,0-3.81.26-6.97.79-9.47.53-2.5,1.27-4.49,2.22-5.98.95-1.49,2.09-2.53,3.42-3.13,1.33-.6,2.81-.9,4.42-.9,1.5,0,2.9.3,4.2.9,1.3.6,2.42,1.64,3.37,3.13.95,1.49,1.69,3.48,2.23,5.98.54,2.5.81,5.65.81,9.47ZM216.4,887.1c0-2.67-.08-4.87-.24-6.62-.16-1.75-.42-3.13-.78-4.16-.36-1.03-.82-1.75-1.38-2.16-.56-.41-1.25-.62-2.05-.62-.86,0-1.58.21-2.18.63s-1.07,1.15-1.42,2.19c-.36,1.04-.61,2.43-.77,4.18-.15,1.75-.23,3.93-.23,6.57s.08,4.76.24,6.5c.16,1.74.42,3.13.77,4.18.35,1.05.81,1.79,1.38,2.21.57.43,1.28.64,2.12.64s1.49-.21,2.07-.64c.57-.43,1.04-1.17,1.41-2.21.37-1.05.64-2.44.81-4.18.17-1.74.25-3.9.25-6.5Z"/>
      <path class="cls-7" d="M247.69,887.1c0,3.62-.27,6.67-.82,9.14-.55,2.48-1.3,4.49-2.26,6.02-.96,1.53-2.09,2.63-3.41,3.3-1.32.67-2.75,1.01-4.31,1.01s-2.99-.33-4.3-.99c-1.31-.66-2.43-1.76-3.37-3.29-.94-1.53-1.67-3.54-2.2-6.02-.53-2.48-.79-5.54-.79-9.17,0-3.81.26-6.97.79-9.47.53-2.5,1.27-4.49,2.22-5.98.95-1.49,2.09-2.53,3.42-3.13,1.33-.6,2.81-.9,4.42-.9,1.5,0,2.9.3,4.2.9,1.3.6,2.42,1.64,3.37,3.13.95,1.49,1.69,3.48,2.23,5.98.54,2.5.81,5.65.81,9.47ZM241.48,887.1c0-2.67-.08-4.87-.24-6.62-.16-1.75-.42-3.13-.78-4.16-.36-1.03-.82-1.75-1.38-2.16-.56-.41-1.25-.62-2.05-.62-.86,0-1.58.21-2.18.63s-1.07,1.15-1.42,2.19c-.36,1.04-.61,2.43-.77,4.18-.15,1.75-.23,3.93-.23,6.57s.08,4.76.24,6.5c.16,1.74.42,3.13.77,4.18.35,1.05.81,1.79,1.38,2.21.57.43,1.28.64,2.12.64s1.49-.21,2.07-.64c.57-.43,1.04-1.17,1.41-2.21.37-1.05.64-2.44.81-4.18.17-1.74.25-3.9.25-6.5Z"/>
    </g>
    <g>
      <path class="cls-7" d="M181.78,954.3v-5.61h7.68v-25.81l-7.44,5.67v-5.93l7.76-6.15h5.85v32.23h7.12v5.61h-20.97Z"/>
      <path class="cls-7" d="M227.25,935.37c0,3.62-.27,6.67-.82,9.14s-1.3,4.49-2.26,6.02c-.96,1.53-2.09,2.63-3.41,3.3-1.32.67-2.75,1.01-4.31,1.01s-2.99-.33-4.3-.99c-1.31-.66-2.43-1.76-3.37-3.29-.94-1.53-1.67-3.54-2.2-6.02-.53-2.48-.79-5.54-.79-9.17,0-3.81.26-6.97.79-9.47.53-2.5,1.27-4.49,2.22-5.98s2.09-2.53,3.42-3.13c1.33-.6,2.81-.9,4.42-.9,1.5,0,2.91.3,4.2.9s2.42,1.64,3.37,3.13,1.69,3.48,2.23,5.98c.54,2.5.81,5.65.81,9.47ZM221.04,935.37c0-2.67-.08-4.87-.24-6.62-.16-1.75-.42-3.13-.78-4.16s-.82-1.75-1.38-2.16c-.56-.41-1.25-.62-2.05-.62-.86,0-1.58.21-2.17.63s-1.07,1.15-1.42,2.19c-.36,1.04-.61,2.43-.77,4.18-.15,1.75-.23,3.93-.23,6.57s.08,4.76.24,6.5c.16,1.74.42,3.13.77,4.18.35,1.05.81,1.79,1.38,2.21s1.28.64,2.12.64,1.49-.21,2.07-.64,1.04-1.17,1.41-2.21c.37-1.05.64-2.44.81-4.18.17-1.74.25-3.9.25-6.5Z"/>
      <path class="cls-7" d="M231.94,954.3v-5.61h7.68v-25.81l-7.44,5.67v-5.93l7.76-6.15h5.85v32.23h7.12v5.61h-20.97Z"/>
      <path class="cls-7" d="M277.41,935.37c0,3.62-.27,6.67-.82,9.14s-1.3,4.49-2.26,6.02c-.96,1.53-2.09,2.63-3.41,3.3-1.32.67-2.75,1.01-4.31,1.01s-2.99-.33-4.3-.99c-1.31-.66-2.43-1.76-3.37-3.29-.94-1.53-1.67-3.54-2.2-6.02-.53-2.48-.79-5.54-.79-9.17,0-3.81.26-6.97.79-9.47.53-2.5,1.27-4.49,2.22-5.98s2.09-2.53,3.42-3.13c1.33-.6,2.81-.9,4.42-.9,1.5,0,2.91.3,4.2.9s2.42,1.64,3.37,3.13,1.69,3.48,2.23,5.98c.54,2.5.81,5.65.81,9.47ZM271.21,935.37c0-2.67-.08-4.87-.24-6.62-.16-1.75-.42-3.13-.78-4.16s-.82-1.75-1.38-2.16c-.56-.41-1.25-.62-2.05-.62-.86,0-1.58.21-2.17.63s-1.07,1.15-1.42,2.19c-.36,1.04-.61,2.43-.77,4.18-.15,1.75-.23,3.93-.23,6.57s.08,4.76.24,6.5c.16,1.74.42,3.13.77,4.18.35,1.05.81,1.79,1.38,2.21s1.28.64,2.12.64,1.49-.21,2.07-.64,1.04-1.17,1.41-2.21c.37-1.05.64-2.44.81-4.18.17-1.74.25-3.9.25-6.5Z"/>
      <path class="cls-7" d="M282.11,954.3v-5.61h7.68v-25.81l-7.44,5.67v-5.93l7.76-6.15h5.85v32.23h7.12v5.61h-20.97Z"/>
      <path class="cls-7" d="M304.72,954.3v-5.61h7.68v-25.81l-7.44,5.67v-5.93l7.76-6.15h5.85v32.23h7.12v5.61h-20.97Z"/>
      <path class="cls-7" d="M350.19,935.37c0,3.62-.27,6.67-.82,9.14-.55,2.48-1.3,4.49-2.26,6.02-.96,1.53-2.09,2.63-3.41,3.3-1.32.67-2.75,1.01-4.31,1.01s-2.99-.33-4.3-.99c-1.31-.66-2.43-1.76-3.37-3.29-.94-1.53-1.67-3.54-2.2-6.02-.53-2.48-.79-5.54-.79-9.17,0-3.81.26-6.97.79-9.47.53-2.5,1.27-4.49,2.22-5.98s2.09-2.53,3.42-3.13c1.33-.6,2.81-.9,4.42-.9,1.5,0,2.91.3,4.2.9s2.42,1.64,3.37,3.13,1.69,3.48,2.23,5.98c.54,2.5.81,5.65.81,9.47ZM343.99,935.37c0-2.67-.08-4.87-.24-6.62-.16-1.75-.42-3.13-.78-4.16s-.82-1.75-1.38-2.16c-.56-.41-1.25-.62-2.05-.62-.86,0-1.58.21-2.17.63s-1.07,1.15-1.42,2.19c-.36,1.04-.61,2.43-.77,4.18-.15,1.75-.23,3.93-.23,6.57s.08,4.76.24,6.5c.16,1.74.42,3.13.77,4.18.35,1.05.81,1.79,1.38,2.21s1.28.64,2.12.64,1.49-.21,2.07-.64,1.04-1.17,1.41-2.21c.37-1.05.63-2.44.81-4.18.17-1.74.25-3.9.25-6.5Z"/>
    </g>
    <g>
      <path class="cls-7" d="M49.67,1025.54c0,3.62-.27,6.66-.82,9.14-.55,2.48-1.3,4.49-2.26,6.02-.96,1.53-2.09,2.63-3.41,3.3-1.32.67-2.75,1.01-4.31,1.01s-2.99-.33-4.3-.99c-1.31-.66-2.43-1.76-3.37-3.29-.94-1.53-1.67-3.54-2.2-6.02-.53-2.48-.79-5.54-.79-9.17,0-3.81.26-6.97.79-9.47.53-2.5,1.27-4.49,2.22-5.98.95-1.49,2.09-2.53,3.42-3.13,1.33-.6,2.81-.9,4.42-.9,1.5,0,2.9.3,4.2.9,1.3.6,2.42,1.64,3.37,3.13.95,1.49,1.69,3.48,2.23,5.98.54,2.5.81,5.65.81,9.47ZM43.47,1025.54c0-2.67-.08-4.88-.24-6.62-.16-1.75-.42-3.13-.78-4.16-.36-1.03-.82-1.75-1.38-2.16-.56-.41-1.25-.62-2.05-.62-.86,0-1.58.21-2.18.63-.59.42-1.07,1.15-1.42,2.19-.36,1.04-.61,2.43-.77,4.18-.15,1.75-.23,3.93-.23,6.57s.08,4.76.24,6.5.42,3.13.77,4.18c.35,1.05.81,1.79,1.38,2.22.57.43,1.28.64,2.12.64s1.49-.21,2.07-.64c.57-.43,1.04-1.17,1.41-2.22.37-1.05.64-2.44.81-4.18.17-1.74.25-3.9.25-6.5Z"/>
      <path class="cls-7" d="M54.37,1044.48v-5.61h7.68v-25.81l-7.44,5.67v-5.94l7.76-6.15h5.85v32.23h7.12v5.61h-20.97Z"/>
      <path class="cls-7" d="M99.84,1025.54c0,3.62-.27,6.66-.82,9.14-.55,2.48-1.3,4.49-2.26,6.02-.96,1.53-2.09,2.63-3.41,3.3-1.32.67-2.75,1.01-4.31,1.01s-2.99-.33-4.3-.99c-1.31-.66-2.43-1.76-3.37-3.29-.94-1.53-1.67-3.54-2.2-6.02-.53-2.48-.79-5.54-.79-9.17,0-3.81.26-6.97.79-9.47.53-2.5,1.27-4.49,2.22-5.98.95-1.49,2.09-2.53,3.42-3.13,1.33-.6,2.81-.9,4.42-.9,1.5,0,2.9.3,4.2.9,1.3.6,2.42,1.64,3.37,3.13.95,1.49,1.69,3.48,2.23,5.98.54,2.5.81,5.65.81,9.47ZM93.63,1025.54c0-2.67-.08-4.88-.24-6.62-.16-1.75-.42-3.13-.78-4.16-.36-1.03-.82-1.75-1.38-2.16-.56-.41-1.25-.62-2.05-.62-.86,0-1.58.21-2.18.63-.59.42-1.07,1.15-1.42,2.19-.36,1.04-.61,2.43-.77,4.18-.15,1.75-.23,3.93-.23,6.57s.08,4.76.24,6.5.42,3.13.77,4.18c.35,1.05.81,1.79,1.38,2.22.57.43,1.28.64,2.12.64s1.49-.21,2.07-.64c.57-.43,1.04-1.17,1.41-2.22.37-1.05.64-2.44.81-4.18.17-1.74.25-3.9.25-6.5Z"/>
      <path class="cls-7" d="M124.92,1025.54c0,3.62-.27,6.66-.82,9.14-.55,2.48-1.3,4.49-2.26,6.02-.96,1.53-2.09,2.63-3.41,3.3-1.32.67-2.75,1.01-4.31,1.01s-2.99-.33-4.3-.99c-1.31-.66-2.43-1.76-3.37-3.29-.94-1.53-1.67-3.54-2.2-6.02-.53-2.48-.79-5.54-.79-9.17,0-3.81.26-6.97.79-9.47.53-2.5,1.27-4.49,2.22-5.98.95-1.49,2.09-2.53,3.42-3.13,1.33-.6,2.81-.9,4.42-.9,1.5,0,2.9.3,4.2.9,1.3.6,2.42,1.64,3.37,3.13.95,1.49,1.69,3.48,2.23,5.98.54,2.5.81,5.65.81,9.47ZM118.72,1025.54c0-2.67-.08-4.88-.24-6.62-.16-1.75-.42-3.13-.78-4.16-.36-1.03-.82-1.75-1.38-2.16-.56-.41-1.25-.62-2.05-.62-.86,0-1.58.21-2.18.63-.59.42-1.07,1.15-1.42,2.19-.36,1.04-.61,2.43-.77,4.18-.15,1.75-.23,3.93-.23,6.57s.08,4.76.24,6.5.42,3.13.77,4.18c.35,1.05.81,1.79,1.38,2.22.57.43,1.28.64,2.12.64s1.49-.21,2.07-.64c.57-.43,1.04-1.17,1.41-2.22.37-1.05.64-2.44.81-4.18.17-1.74.25-3.9.25-6.5Z"/>
      <path class="cls-7" d="M150,1025.54c0,3.62-.27,6.66-.82,9.14-.55,2.48-1.3,4.49-2.26,6.02-.96,1.53-2.09,2.63-3.41,3.3-1.32.67-2.75,1.01-4.31,1.01s-2.99-.33-4.3-.99c-1.31-.66-2.43-1.76-3.37-3.29-.94-1.53-1.67-3.54-2.2-6.02-.53-2.48-.79-5.54-.79-9.17,0-3.81.26-6.97.79-9.47.53-2.5,1.27-4.49,2.22-5.98.95-1.49,2.09-2.53,3.42-3.13,1.33-.6,2.81-.9,4.42-.9,1.5,0,2.9.3,4.2.9,1.3.6,2.42,1.64,3.37,3.13.95,1.49,1.69,3.48,2.23,5.98.54,2.5.81,5.65.81,9.47ZM143.8,1025.54c0-2.67-.08-4.88-.24-6.62-.16-1.75-.42-3.13-.78-4.16-.36-1.03-.82-1.75-1.38-2.16-.56-.41-1.25-.62-2.05-.62-.86,0-1.58.21-2.18.63-.59.42-1.07,1.15-1.42,2.19-.36,1.04-.61,2.43-.77,4.18-.15,1.75-.23,3.93-.23,6.57s.08,4.76.24,6.5.42,3.13.77,4.18c.35,1.05.81,1.79,1.38,2.22.57.43,1.28.64,2.12.64s1.49-.21,2.07-.64c.57-.43,1.04-1.17,1.41-2.22.37-1.05.64-2.44.81-4.18.17-1.74.25-3.9.25-6.5Z"/>
      <path class="cls-7" d="M154.7,1044.48v-5.61h7.68v-25.81l-7.44,5.67v-5.94l7.76-6.15h5.85v32.23h7.12v5.61h-20.97Z"/>
      <path class="cls-7" d="M200.17,1025.54c0,3.62-.27,6.66-.82,9.14-.55,2.48-1.3,4.49-2.26,6.02-.96,1.53-2.09,2.63-3.41,3.3-1.32.67-2.75,1.01-4.31,1.01s-2.99-.33-4.3-.99c-1.31-.66-2.43-1.76-3.37-3.29-.94-1.53-1.67-3.54-2.2-6.02-.53-2.48-.79-5.54-.79-9.17,0-3.81.26-6.97.79-9.47.53-2.5,1.27-4.49,2.22-5.98.95-1.49,2.09-2.53,3.42-3.13,1.33-.6,2.81-.9,4.42-.9,1.5,0,2.9.3,4.2.9,1.3.6,2.42,1.64,3.37,3.13.95,1.49,1.69,3.48,2.23,5.98.54,2.5.81,5.65.81,9.47ZM193.97,1025.54c0-2.67-.08-4.88-.24-6.62-.16-1.75-.42-3.13-.78-4.16-.36-1.03-.82-1.75-1.38-2.16-.56-.41-1.25-.62-2.05-.62-.86,0-1.58.21-2.18.63-.59.42-1.07,1.15-1.42,2.19-.36,1.04-.61,2.43-.77,4.18-.15,1.75-.23,3.93-.23,6.57s.08,4.76.24,6.5.42,3.13.77,4.18c.35,1.05.81,1.79,1.38,2.22.57.43,1.28.64,2.12.64s1.49-.21,2.07-.64c.57-.43,1.04-1.17,1.41-2.22.37-1.05.64-2.44.81-4.18.17-1.74.25-3.9.25-6.5Z"/>
      <path class="cls-7" d="M225.25,1025.54c0,3.62-.27,6.66-.82,9.14-.55,2.48-1.3,4.49-2.26,6.02-.96,1.53-2.09,2.63-3.41,3.3-1.32.67-2.75,1.01-4.31,1.01s-2.99-.33-4.3-.99c-1.31-.66-2.43-1.76-3.37-3.29-.94-1.53-1.67-3.54-2.2-6.02-.53-2.48-.79-5.54-.79-9.17,0-3.81.26-6.97.79-9.47.53-2.5,1.27-4.49,2.22-5.98.95-1.49,2.09-2.53,3.42-3.13,1.33-.6,2.81-.9,4.42-.9,1.5,0,2.9.3,4.2.9,1.3.6,2.42,1.64,3.37,3.13.95,1.49,1.69,3.48,2.23,5.98.54,2.5.81,5.65.81,9.47ZM219.05,1025.54c0-2.67-.08-4.88-.24-6.62-.16-1.75-.42-3.13-.78-4.16-.36-1.03-.82-1.75-1.38-2.16-.56-.41-1.25-.62-2.05-.62-.86,0-1.58.21-2.18.63-.59.42-1.07,1.15-1.42,2.19-.36,1.04-.61,2.43-.77,4.18-.15,1.75-.23,3.93-.23,6.57s.08,4.76.24,6.5.42,3.13.77,4.18c.35,1.05.81,1.79,1.38,2.22.57.43,1.28.64,2.12.64s1.49-.21,2.07-.64c.57-.43,1.04-1.17,1.41-2.22.37-1.05.64-2.44.81-4.18.17-1.74.25-3.9.25-6.5Z"/>
    </g>
    <rect class="cls-7" x="88.37" y="272.62" width="319.03" height="8.31"/>
    <rect class="cls-7" x="498.52" y="992.96" width="267.82" height="8.31"/>
    <circle class="cls-7" cx="473.98" cy="341.71" r="9.61"/>
    <ellipse class="cls-7" cx="414.38" cy="277.73" rx="13.02" ry="12.63"/>
    <path class="cls-7" d="M285.9,877.6c52.17.2-.69,0-.69,0v7.46h157.2v-7.46h-156.51Z"/>
    <circle class="cls-7" cx="448.16" cy="881.17" r="9.61"/>
    <rect class="cls-7" x="143.4" y="23.27" width="342.89" height="6.33"/>
    <rect class="cls-7" x="199.4" y="131.92" width="362.99" height="8.18"/>
    <path class="cls-7" d="M574.41,184.73H254.84h0c108.14.28-1.44,0-1.44,0v10.25h320.97c-.83-1.53-1.31-3.25-1.31-5.09s.49-3.62,1.34-5.16Z"/>
    <rect class="cls-7" x="209.4" y="37.4" width="199.8" height="10.55"/>
    <path class="cls-3" d="M1229.4,828.36c86.51-.35,173.01-.51,259.5-.5,80.16.01,160.33.18,240.5.5-76.71,78.44-153.05,126.32-208,155-127.77,66.68-241.4,82.62-306,91-37.45,4.86-53.22,4.88-257,6-173.25.96-305.94,1.74-306-1-.04-1.87,66.16,1.98,154.71-13.69,41.49-7.34,125.82-22.96,220.83-73.64,95.82-51.12,161.22-115.92,201.46-163.67Z"/>
    <g>
      <path class="cls-7" d="M1088.95,623.84c-2.14,0-3.98-.76-5.48-2.26-1.5-1.5-2.26-3.34-2.26-5.48s.76-3.91,2.25-5.43c1.5-1.53,3.35-2.31,5.5-2.31h9.76v-38.86h-9.62c-2.15,0-4-.78-5.5-2.31-1.49-1.52-2.25-3.35-2.25-5.43s.75-3.98,2.23-5.52c1.5-1.56,3.36-2.36,5.51-2.36h17.5c2.15,0,4.01.79,5.51,2.36,1.48,1.54,2.23,3.4,2.23,5.52v46.6h9.48c2.12,0,3.98.75,5.52,2.23,1.56,1.5,2.36,3.36,2.36,5.51s-.78,3.99-2.31,5.5c-1.52,1.49-3.35,2.25-5.43,2.25h-35ZM1100.43,544.61c-2.21,0-4.09-.81-5.59-2.41-1.49-1.58-2.21-3.4-2.15-5.4l.14-5.05c0-2.08.76-3.93,2.26-5.43s3.34-2.26,5.48-2.26h6.02c2.14,0,3.98.76,5.48,2.26,1.5,1.5,2.26,3.35,2.26,5.48v4.92c0,2.12-.75,3.98-2.23,5.52-1.5,1.56-3.36,2.36-5.51,2.36h-6.15Z"/>
      <path class="cls-7" d="M1123.95,621.84h-35c-1.6,0-2.95-.56-4.07-1.67-1.12-1.12-1.67-2.47-1.67-4.07s.56-2.89,1.67-4.03c1.12-1.14,2.47-1.71,4.07-1.71h11.76v-42.86h-11.62c-1.6,0-2.95-.57-4.07-1.71-1.12-1.14-1.67-2.48-1.67-4.03s.56-2.97,1.67-4.14c1.12-1.16,2.47-1.74,4.07-1.74h17.5c1.59,0,2.95.58,4.07,1.74,1.12,1.16,1.67,2.54,1.67,4.14v48.6h11.48c1.59,0,2.97.56,4.14,1.67,1.16,1.12,1.74,2.47,1.74,4.07s-.57,2.95-1.71,4.07c-1.14,1.12-2.48,1.67-4.03,1.67ZM1100.57,526.07h6.02c1.59,0,2.95.56,4.07,1.67,1.12,1.12,1.67,2.47,1.67,4.07v4.92c0,1.6-.56,2.97-1.67,4.14-1.12,1.16-2.47,1.74-4.07,1.74h-6.15c-1.64,0-3.02-.59-4.14-1.78-1.12-1.18-1.65-2.51-1.61-3.96l.14-5.06c0-1.59.56-2.95,1.67-4.07s2.47-1.67,4.07-1.67Z"/>
      <path class="cls-7" d="M1173.37,648.59c-2.13,0-3.97-.74-5.47-2.21-1.51-1.48-2.28-3.34-2.28-5.53s.77-3.98,2.28-5.46c1.5-1.47,3.34-2.21,5.47-2.21h24.88c1.02,0,1.98-.4,2.93-1.22l3.94-3.39.05-.04c.82-.63,1.19-1.36,1.19-2.37v-12.98c-4.61,3.73-9.21,5.62-13.72,5.62h-8.82c-5.03,0-9.61-1.75-13.61-5.2l-4.33-3.85c-1.59-1.34-3.01-3.32-4.15-5.87-1.14-2.53-1.71-5.06-1.71-7.52v-19c0-2.95.57-5.78,1.7-8.44,1.14-2.7,2.56-4.77,4.21-6.15l4.7-4.02c3.72-3.22,8.16-4.85,13.19-4.85h8.27c4.98,0,9.56,1.77,13.61,5.27l.77.65c.34-1.29,1.02-2.46,2.05-3.49,1.52-1.52,3.36-2.29,5.45-2.29s3.98.75,5.52,2.23c1.56,1.5,2.36,3.36,2.36,5.51v64.39c0,5.45-2.21,10.16-6.55,14.01l-4.66,4.04c-1.38,1.22-3.23,2.24-5.66,3.11-2.37.85-4.64,1.28-6.72,1.28h-24.88ZM1183.97,569.36c-1.21,0-2.37.49-3.56,1.5l-3.58,2.96c-.9.75-1.33,1.74-1.33,3.11v19.14c0,.97.52,1.92,1.6,2.9l3.74,3.34c.78.66,1.59,1,2.43,1h9.37c.87,0,1.99-.55,3.23-1.59l9.08-7.71c.96-.83,1.41-1.79,1.41-2.99v-8.68c0-1.5-.53-2.64-1.67-3.59l-9.39-8.02c-1.01-.94-2.17-1.37-3.62-1.37h-7.72Z"/>
      <path class="cls-7" d="M1198.25,646.59h-24.88c-1.6,0-2.95-.55-4.07-1.64-1.12-1.09-1.67-2.46-1.67-4.1s.56-2.94,1.67-4.03c1.12-1.09,2.47-1.64,4.07-1.64h24.88c1.5,0,2.92-.57,4.24-1.71l3.9-3.35c1.32-1,1.98-2.32,1.98-3.96v-17.5c-5.38,5.42-10.62,8.13-15.72,8.13h-8.82c-4.56,0-8.66-1.57-12.3-4.72l-4.31-3.83c-1.41-1.18-2.63-2.92-3.66-5.2-1.03-2.28-1.54-4.51-1.54-6.7v-19c0-2.69.51-5.24,1.54-7.66,1.03-2.42,2.24-4.21,3.66-5.4l4.72-4.03c3.37-2.92,7.34-4.38,11.89-4.38h8.27c4.51,0,8.61,1.6,12.3,4.79l3.96,3.35-.14-2.26c0-1.55.57-2.89,1.71-4.03s2.48-1.71,4.03-1.71,2.97.56,4.14,1.67c1.16,1.12,1.74,2.47,1.74,4.07v64.39c0,4.88-1.96,9.05-5.88,12.51l-4.65,4.03c-1.19,1.05-2.86,1.96-5.02,2.73-2.17.77-4.18,1.16-6.05,1.16ZM1191.69,567.36h-7.72c-1.69,0-3.3.66-4.85,1.98l-3.55,2.94c-1.37,1.14-2.05,2.69-2.05,4.65v19.14c0,1.55.75,3.01,2.26,4.38l3.76,3.35c1.18,1,2.44,1.5,3.76,1.5h9.37c1.37,0,2.87-.68,4.51-2.05l9.09-7.72c1.41-1.23,2.12-2.73,2.12-4.51v-8.68c0-2.1-.8-3.8-2.39-5.13l-9.37-8c-1.32-1.23-2.96-1.85-4.92-1.85Z"/>
      <path d="M1258.07,623.84c-2.14,0-3.98-.76-5.48-2.26-1.5-1.5-2.26-3.34-2.26-5.48s.76-3.91,2.25-5.43c1.5-1.53,3.35-2.31,5.5-2.31h9.76v-38.86h-9.62c-2.15,0-4-.78-5.5-2.31-1.49-1.52-2.25-3.35-2.25-5.43s.75-3.98,2.23-5.52c1.5-1.56,3.36-2.36,5.51-2.36h17.5c2.15,0,4.01.79,5.51,2.36,1.48,1.54,2.23,3.4,2.23,5.52v46.6h9.48c2.12,0,3.98.75,5.52,2.23,1.56,1.5,2.36,3.36,2.36,5.51s-.78,3.99-2.31,5.5c-1.52,1.49-3.35,2.25-5.43,2.25h-35ZM1269.55,544.61c-2.21,0-4.09-.81-5.59-2.41-1.49-1.58-2.21-3.4-2.15-5.4l.14-5.05c0-2.08.76-3.93,2.26-5.43s3.34-2.26,5.48-2.26h6.02c2.14,0,3.98.76,5.48,2.26,1.5,1.5,2.26,3.35,2.26,5.48v4.92c0,2.12-.75,3.98-2.23,5.52-1.5,1.56-3.36,2.36-5.51,2.36h-6.15Z"/>
      <path class="cls-7" d="M1258.07,622.84c-1.86,0-3.47-.66-4.77-1.97-1.31-1.3-1.97-2.91-1.97-4.77s.66-3.41,1.96-4.73c1.31-1.33,2.92-2.01,4.78-2.01h10.76v-40.86h-10.62c-1.87,0-3.48-.68-4.78-2.01-1.3-1.33-1.96-2.92-1.96-4.73s.66-3.48,1.95-4.83c1.31-1.36,2.92-2.05,4.79-2.05h17.5c1.87,0,3.48.69,4.79,2.05,1.3,1.35,1.95,2.97,1.95,4.83v47.6h10.48c1.85,0,3.48.66,4.83,1.95,1.36,1.31,2.05,2.92,2.05,4.79s-.68,3.47-2.01,4.78c-1.33,1.3-2.92,1.96-4.73,1.96h-35ZM1269.55,543.61c-1.92,0-3.56-.7-4.86-2.09-1.3-1.38-1.93-2.95-1.88-4.68l.14-5.05c0-1.84.66-3.44,1.97-4.75s2.91-1.97,4.77-1.97h6.02c1.86,0,3.47.66,4.77,1.97,1.31,1.31,1.97,2.91,1.97,4.77v4.92c0,1.85-.66,3.48-1.95,4.83-1.31,1.36-2.92,2.05-4.79,2.05h-6.15Z"/>
      <path class="cls-7" d="M1293.07,621.84h-35c-1.6,0-2.95-.56-4.07-1.67-1.12-1.12-1.67-2.47-1.67-4.07s.56-2.89,1.67-4.03c1.12-1.14,2.47-1.71,4.07-1.71h11.76v-42.86h-11.62c-1.6,0-2.95-.57-4.07-1.71-1.12-1.14-1.67-2.48-1.67-4.03s.56-2.97,1.67-4.14c1.12-1.16,2.47-1.74,4.07-1.74h17.5c1.59,0,2.95.58,4.07,1.74,1.12,1.16,1.67,2.54,1.67,4.14v48.6h11.48c1.59,0,2.97.56,4.14,1.67,1.16,1.12,1.74,2.47,1.74,4.07s-.57,2.95-1.71,4.07c-1.14,1.12-2.48,1.67-4.03,1.67ZM1269.69,526.07h6.02c1.59,0,2.95.56,4.07,1.67,1.12,1.12,1.67,2.47,1.67,4.07v4.92c0,1.6-.56,2.97-1.67,4.14-1.12,1.16-2.47,1.74-4.07,1.74h-6.15c-1.64,0-3.02-.59-4.14-1.78-1.12-1.18-1.65-2.51-1.61-3.96l.14-5.06c0-1.59.56-2.95,1.67-4.07s2.47-1.67,4.07-1.67Z"/>
      <path d="M1360.13,623.98c-5.26,0-9.85-1.9-13.64-5.63-3.8-3.75-5.72-8.32-5.72-13.59v-35.26h-3.88c-2.13,0-3.97-.74-5.47-2.21-1.51-1.48-2.28-3.34-2.28-5.53s.76-3.98,2.26-5.48,3.34-2.26,5.48-2.26h4.02v-12.08c0-2.14.76-3.98,2.26-5.48s3.34-2.26,5.48-2.26,3.85.77,5.4,2.28c1.56,1.53,2.34,3.36,2.34,5.46v12.08h21.11c2.09,0,3.92.77,5.45,2.29,1.52,1.52,2.29,3.36,2.29,5.45s-.78,3.99-2.31,5.5c-1.52,1.49-3.35,2.25-5.43,2.25h-21.24v35.26c0,1.01.36,1.84,1.14,2.6.79.78,1.66,1.14,2.74,1.14h11.21c1.53,0,3.22-.42,4.17-3.54,1.6-5.27,5.08-6.38,7.72-6.38,2.24,0,4.12.77,5.58,2.29,1.44,1.5,2.16,3.38,2.16,5.59,0,3.98-1.83,7.92-5.44,11.73-3.64,3.84-8.32,5.79-13.93,5.79h-11.48Z"/>
      <path d="M1371.61,621.98h-11.48c-4.74,0-8.82-1.69-12.24-5.06-3.42-3.37-5.13-7.43-5.13-12.17v-37.26h-5.88c-1.6,0-2.95-.55-4.07-1.64-1.12-1.09-1.67-2.46-1.67-4.1s.56-2.95,1.67-4.07,2.47-1.67,4.07-1.67h6.02v-14.08c0-1.59.56-2.95,1.67-4.07s2.47-1.67,4.07-1.67c1.5,0,2.84.57,4,1.71,1.16,1.14,1.74,2.48,1.74,4.03v14.08h23.11c1.55,0,2.89.57,4.03,1.71,1.14,1.14,1.71,2.48,1.71,4.03s-.57,2.95-1.71,4.07c-1.14,1.12-2.48,1.67-4.03,1.67h-23.24v37.26c0,1.55.58,2.89,1.74,4.03,1.16,1.14,2.54,1.71,4.14,1.71h11.21c3.05,0,5.08-1.65,6.08-4.96,1-3.3,2.94-4.96,5.81-4.96,1.69,0,3.06.56,4.14,1.67,1.07,1.12,1.61,2.52,1.61,4.2,0,3.46-1.63,6.92-4.89,10.36-3.26,3.44-7.42,5.16-12.48,5.16Z"/>
      <path d="M1468,623.98c-2.18,0-4.05-.76-5.57-2.25-.73-.71-1.29-1.5-1.67-2.37l-7.81,4.62h-19.99c-5.37,0-9.99-1.9-13.74-5.64-3.75-3.74-5.65-8.36-5.65-13.72v-6.7c0-5.31,1.91-9.92,5.69-13.69,3.77-3.77,8.38-5.68,13.7-5.68h22.52c.89,0,1.98.12,3.3.35l-.09-5.63c0-1.1-.35-1.94-1.09-2.68-.75-.74-1.59-1.09-2.66-1.09h-21.85c-2.09,0-3.93-.77-5.46-2.29-1.53-1.52-2.3-3.35-2.3-5.45s.76-3.98,2.26-5.48c1.5-1.5,3.35-2.26,5.49-2.26h21.84c5.27,0,9.83,1.87,13.56,5.57,3.72,3.69,5.68,8.26,5.83,13.6l1.44,42.99c0,2.21-.78,4.06-2.31,5.56-1.52,1.49-3.35,2.25-5.43,2.25ZM1432.93,594.31c-1.07,0-1.91.35-2.66,1.09s-1.09,1.59-1.09,2.65v6.43c0,1.02.36,1.85,1.12,2.62.77.77,1.6,1.12,2.62,1.12h15.68l10.98-6.41-.25-3.61c-.04-1.22-.39-2.09-1.13-2.83-.72-.72-1.55-1.06-2.62-1.06h-22.65Z"/>
      <path d="M1432.95,580.55h22.52c1.23,0,3.01.27,5.34.82l-.13-8.13c0-1.59-.56-2.95-1.68-4.07-1.12-1.12-2.48-1.67-4.08-1.67h-21.85c-1.55,0-2.9-.57-4.04-1.71-1.14-1.14-1.71-2.48-1.71-4.03s.56-2.95,1.68-4.07c1.12-1.12,2.48-1.67,4.07-1.67h21.84c4.75,0,8.8,1.66,12.15,4.99,3.36,3.33,5.1,7.41,5.24,12.24l1.44,43c0,1.6-.57,2.95-1.71,4.07-1.14,1.12-2.48,1.67-4.03,1.67-1.64,0-3.03-.56-4.17-1.67-1.14-1.12-1.71-2.47-1.71-4.07l-9.72,5.74h-19.44c-4.84,0-8.95-1.69-12.32-5.06-3.38-3.37-5.07-7.47-5.07-12.3v-6.7c0-4.79,1.7-8.88,5.1-12.27,3.4-3.39,7.5-5.09,12.29-5.09ZM1461.67,602.9l-.34-4.85c-.05-1.64-.62-3.01-1.71-4.1s-2.44-1.64-4.04-1.64h-22.65c-1.6,0-2.95.56-4.07,1.67-1.12,1.12-1.68,2.47-1.68,4.07v6.43c0,1.55.57,2.89,1.71,4.03,1.14,1.14,2.49,1.71,4.04,1.71h16.22l12.52-7.31Z"/>
      <path d="M1512.02,623.98c-2.15,0-4.01-.79-5.51-2.36-1.48-1.54-2.23-3.4-2.23-5.52s.76-3.91,2.25-5.43c1.5-1.53,3.35-2.31,5.5-2.31h9.48v-63.74h-9.62c-2.14,0-3.98-.76-5.48-2.26-1.5-1.5-2.26-3.34-2.26-5.48s.76-3.98,2.26-5.48,3.34-2.26,5.48-2.26h17.5c2.09,0,3.92.77,5.45,2.29,1.52,1.52,2.29,3.36,2.29,5.45v71.49h9.62c2.09,0,3.92.77,5.45,2.29,1.52,1.53,2.29,3.36,2.29,5.45s-.75,3.98-2.23,5.52c-1.5,1.56-3.36,2.36-5.51,2.36h-34.73Z"/>
      <path d="M1546.75,621.98h-34.73c-1.6,0-2.95-.58-4.07-1.74-1.12-1.16-1.67-2.54-1.67-4.14s.56-2.89,1.67-4.03c1.12-1.14,2.47-1.71,4.07-1.71h11.48v-67.74h-11.62c-1.6,0-2.95-.56-4.07-1.67-1.12-1.12-1.67-2.47-1.67-4.07s.56-2.95,1.67-4.07,2.47-1.67,4.07-1.67h17.5c1.55,0,2.89.57,4.03,1.71,1.14,1.14,1.71,2.48,1.71,4.03v73.49h11.62c1.55,0,2.89.57,4.03,1.71,1.14,1.14,1.71,2.48,1.71,4.03s-.56,2.97-1.67,4.14c-1.12,1.16-2.47,1.74-4.07,1.74Z"/>
      <path d="M1606.77,623.98c-2.24,0-4.61-.47-7.04-1.4-2.46-.94-4.25-1.91-5.49-2.99l-5.13-4.52c-1.76-1.4-3.29-3.43-4.49-5.98-1.19-2.53-1.8-4.94-1.8-7.14v-26.32c0-1.81.63-4.07,1.92-6.91,1.29-2.83,2.97-5.08,4.98-6.68l4.79-3.77c3.47-2.82,7.41-4.26,11.69-4.26h16.13c4.56,0,8.88,1.88,12.85,5.6l4.32,4.11c3.48,3.12,5.27,7.81,5.27,13.89v13.88c0,2.09-.77,3.92-2.29,5.45s-3.36,2.29-5.45,2.29h-38.61v1.35c0,1.36.57,2.45,1.79,3.44l3.37,2.82c1.4,1.08,2.73,1.65,3.91,1.65h29.53c2.08,0,3.91.76,5.43,2.25,1.53,1.5,2.31,3.35,2.31,5.5s-.79,3.94-2.34,5.46c-1.54,1.51-3.36,2.28-5.4,2.28h-30.28ZM1629.45,583.61v-6c0-1.54-.42-2.66-1.29-3.41l-3.36-2.95c-1.64-1.33-2.72-1.62-3.33-1.62h-14.42c-1.3,0-2.47.45-3.56,1.37l-3.36,2.81c-1.07.82-1.54,1.72-1.54,2.91v6.89h30.86Z"/>
      <path d="M1642.79,577.61v13.88c0,1.55-.57,2.89-1.71,4.03s-2.48,1.71-4.03,1.71h-40.61v3.35c0,1.96.84,3.62,2.53,4.99l3.35,2.8c1.82,1.41,3.55,2.12,5.2,2.12h29.53c1.55,0,2.89.56,4.03,1.67,1.14,1.12,1.71,2.47,1.71,4.07s-.58,2.89-1.74,4.03c-1.16,1.14-2.5,1.71-4,1.71h-30.28c-2.01,0-4.11-.42-6.32-1.26-2.21-.84-3.84-1.72-4.89-2.63l-5.13-4.51c-1.6-1.28-2.93-3.05-4-5.33-1.07-2.28-1.61-4.38-1.61-6.29v-26.32c0-1.5.58-3.53,1.74-6.08,1.16-2.55,2.63-4.53,4.41-5.95l4.79-3.76c3.14-2.55,6.63-3.83,10.46-3.83h16.13c4.06,0,7.88,1.69,11.48,5.06l4.31,4.1c3.1,2.78,4.65,6.93,4.65,12.44ZM1596.58,576.72v8.89h34.86v-8c0-2.14-.66-3.78-1.98-4.92l-3.35-2.94c-1.73-1.41-3.28-2.12-4.65-2.12h-14.42c-1.78,0-3.4.62-4.85,1.85l-3.35,2.8c-1.5,1.14-2.26,2.62-2.26,4.44Z"/>
    </g>
  </g>
</svg>